<svg xmlns="http://www.w3.org/2000/svg" width="192" height="192" version="1.0" viewBox="0 0 144 144">
<path d="M57.7 63.5c-11.8 9.7-13.5 12.3-10.5 15.3 2.4 2.4 5.5 1 14.3-6.3 5-4.1 9.6-7.5 10.4-7.5.7 0 5 3.1 9.5 6.9 9.9 8.4 12 9.5 14.5 8.2 2.2-1.2 3.3-3.5 2.5-5.5-.3-.8-5.5-5.5-11.5-10.6-15.2-12.7-14.6-12.6-29.2-.5z"/><path d="M57.7 82.5c-11.8 9.7-13.5 12.3-10.5 15.3 2.4 2.4 5.5 1 14.3-6.3 5-4.1 9.6-7.5 10.4-7.5.7 0 5 3.1 9.5 6.9 9.9 8.4 12 9.5 14.5 8.2 2.2-1.2 3.3-3.5 2.5-5.5-.3-.8-5.5-5.5-11.5-10.6-15.2-12.7-14.6-12.6-29.2-.5z"/>
</svg>
